<?xml version="1.0" standalone="no"?>
<!DOCTYPE svg PUBLIC "-//W3C//DTD SVG 20010904//EN"
 "http://www.w3.org/TR/2001/REC-SVG-20010904/DTD/svg10.dtd">
<svg version="1.0" xmlns="http://www.w3.org/2000/svg"
 width="512.000000pt" height="512.000000pt" viewBox="0 0 512.000000 512.000000"
 preserveAspectRatio="xMidYMid meet">
<metadata>
Created by potrace 1.11, written by Peter Selinger 2001-2013
</metadata>
<g transform="translate(0.000000,512.000000) scale(0.100000,-0.100000)"
fill="#000000" stroke="none">
<path d="M2450 5099 c-339 -20 -703 -131 -1034 -316 -523 -291 -944 -760
-1255 -1398 -64 -131 -141 -309 -141 -327 0 -4 44 37 98 90 93 95 159 146 287
228 l60 38 -30 -40 c-208 -272 -334 -620 -390 -1079 -17 -134 -34 -505 -24
-505 3 0 29 29 58 65 47 60 122 125 142 125 4 0 2 -17 -6 -39 -23 -65 -73
-299 -94 -441 -69 -459 -40 -941 81 -1361 30 -106 31 -107 57 -99 99 29 1123
327 1236 359 l140 40 35 -29 c72 -61 278 -193 365 -235 125 -60 184 -82 300
-110 341 -84 726 35 1104 342 30 24 59 42 65 40 6 -2 137 -39 291 -82 343 -94
883 -251 1027 -298 l106 -34 30 116 c138 527 145 1087 21 1645 -17 76 -33 145
-36 155 -6 19 19 -10 84 -96 26 -35 50 -63 54 -63 5 0 6 21 4 48 -3 26 -7 115
-10 197 -5 171 -25 336 -60 510 -70 350 -178 603 -354 834 l-25 33 59 -37
c135 -86 278 -210 342 -298 20 -27 39 -45 41 -39 4 14 -73 200 -151 364 -288
603 -707 1078 -1202 1364 -416 240 -864 357 -1275 333z m-213 -614 c15 -11 32
-47 52 -113 37 -119 66 -163 127 -193 95 -45 265 -35 343 21 45 33 69 74 107
183 15 41 37 82 52 96 24 22 32 23 107 18 93 -6 187 -37 278 -93 172 -104 397
-316 473 -444 75 -127 155 -355 205 -581 18 -83 18 -94 4 -134 -13 -40 -13
-54 1 -127 8 -46 19 -123 24 -171 13 -128 48 -172 158 -196 56 -12 85 -32 120
-83 41 -61 61 -119 72 -204 12 -95 -10 -183 -69 -276 -65 -103 -135 -155 -237
-178 -95 -22 -128 -64 -144 -187 -24 -182 -66 -322 -145 -488 -234 -488 -718
-904 -1125 -966 -396 -61 -1004 382 -1276 930 -85 173 -134 333 -149 486 -13
138 -42 191 -120 215 -96 30 -142 56 -201 116 -68 70 -120 159 -133 231 -13
67 4 195 35 263 38 83 86 127 153 141 117 23 150 67 161 219 20 259 125 681
223 893 32 70 43 85 54 76 7 -6 77 -79 155 -161 l141 -149 -57 -58 c-35 -36
-60 -71 -67 -95 -27 -97 67 -179 161 -140 19 8 59 38 88 67 l52 52 107 -108
108 -107 -46 -47 c-65 -67 -79 -92 -79 -136 0 -52 22 -91 64 -111 65 -31 104
-18 187 61 l59 56 107 -100 c144 -134 179 -151 243 -118 60 31 85 94 61 157
-8 21 -112 128 -201 206 l-35 31 56 58 c75 78 89 101 89 146 0 61 -30 102 -90
119 -51 15 -90 -2 -167 -75 l-74 -71 -107 107 -107 107 61 62 c75 78 94 105
94 139 0 82 -58 135 -137 126 -40 -4 -54 -13 -120 -78 l-74 -74 -115 120 c-63
66 -135 144 -161 174 l-47 53 65 63 c140 132 307 235 439 269 75 20 170 20
197 1z"/>
<path d="M1534 2703 c15 -160 61 -312 122 -395 67 -91 206 -135 372 -118 129
14 239 58 298 122 64 67 68 63 -163 168 -115 51 -302 140 -416 197 -115 56
-211 103 -214 103 -3 0 -2 -35 1 -77z"/>
<path d="M3423 2701 c-83 -43 -269 -131 -412 -196 -290 -132 -282 -125 -217
-193 59 -64 169 -108 298 -122 111 -11 193 1 275 41 98 47 152 135 193 314 22
94 36 235 24 234 -5 0 -77 -35 -161 -78z"/>
<path d="M2084 1549 c-39 -11 -90 -67 -117 -128 -41 -94 6 -216 132 -342 134
-134 279 -194 461 -193 115 0 185 16 280 64 169 85 311 254 327 389 5 41 1 57
-23 101 -16 29 -46 67 -68 86 -56 48 -104 46 -270 -10 -207 -70 -284 -71 -505
-1 -126 39 -175 47 -217 34z m380 -189 c129 -16 307 11 418 64 l50 24 -7 -27
c-11 -43 -59 -126 -76 -129 -8 -1 -32 9 -53 23 l-38 26 -42 -46 c-45 -48 -65
-55 -86 -30 -7 9 -31 30 -52 46 l-39 31 -40 -46 c-22 -25 -47 -46 -54 -46 -14
0 -65 59 -65 76 0 5 -4 15 -9 23 -7 11 -19 7 -60 -23 -28 -21 -58 -36 -65 -33
-15 6 -86 126 -86 144 0 6 51 -7 113 -28 62 -21 148 -43 191 -49z"/>
</g>
</svg>
