<?xml version="1.0" standalone="no"?>
<!DOCTYPE svg PUBLIC "-//W3C//DTD SVG 20010904//EN"
 "http://www.w3.org/TR/2001/REC-SVG-20010904/DTD/svg10.dtd">
<svg version="1.0" xmlns="http://www.w3.org/2000/svg"
 width="600.000000pt" height="600.000000pt" viewBox="0 0 600.000000 600.000000"
 preserveAspectRatio="xMidYMid meet">
<metadata>
Created by potrace 1.11, written by Peter Selinger 2001-2013
</metadata>
<g transform="translate(0.000000,600.000000) scale(0.100000,-0.100000)"
fill="#000000" stroke="none">
<path d="M2618 5147 c-93 -155 -159 -324 -197 -502 -16 -71 -30 -112 -51 -141
-49 -68 -124 -224 -158 -324 -17 -52 -42 -122 -55 -155 -24 -61 -61 -192 -72
-255 -27 -154 -6 -360 48 -482 93 -209 335 -385 562 -411 28 -3 36 -14 101
-142 70 -137 72 -142 78 -235 4 -52 9 -113 11 -135 2 -22 7 -78 10 -125 5 -85
12 -180 20 -275 4 -55 8 -49 -157 -222 l-50 -53 1 -279 1 -279 -84 -169 -83
-168 400 -3 c220 -1 402 -1 403 1 2 2 4 24 5 50 1 26 4 45 7 42 17 -17 111 53
214 160 34 36 43 88 23 140 -9 25 -27 53 -40 61 l-24 15 31 32 c17 18 37 46
44 64 24 56 2 135 -46 165 -18 12 -18 12 1 39 10 15 22 41 25 58 8 41 -20 115
-51 135 l-24 16 24 36 c22 33 26 47 28 97 2 52 -50 113 -105 124 l-29 6 7 111
c3 61 7 127 9 146 1 19 6 91 10 160 8 143 16 166 151 397 23 40 58 165 69 248
2 22 7 51 9 65 18 104 23 283 11 395 -19 175 -94 357 -191 463 -31 35 -116
109 -188 165 -294 228 -421 347 -506 473 -84 126 -115 240 -123 457 -3 65 -7
120 -9 123 -3 2 -29 -38 -60 -89z m-4 -243 c53 -276 185 -439 638 -787 206
-159 278 -256 330 -447 20 -76 23 -106 22 -280 0 -190 -11 -272 -59 -460 -2
-8 -4 -19 -4 -23 -2 -19 -20 6 -26 36 -12 56 -57 179 -83 226 -61 112 -127
175 -317 303 -183 123 -257 181 -357 284 -104 105 -153 173 -198 269 -57 122
-74 199 -74 350 -1 193 28 339 100 502 8 17 14 37 14 44 0 17 10 6 14 -17z
m-220 -714 c20 -64 72 -186 103 -247 87 -168 272 -348 558 -541 159 -107 246
-185 285 -254 21 -38 22 -41 4 -33 -33 14 -180 43 -256 50 -74 7 -88 8 -168
20 -150 22 -301 86 -410 173 -49 39 -150 142 -150 154 0 3 -6 13 -12 20 -24
25 -56 93 -77 163 -48 160 -24 364 67 565 l25 55 8 -40 c4 -22 14 -60 23 -85z
m-214 -495 c0 -9 9 -41 20 -72 94 -268 395 -489 719 -528 25 -3 57 -8 71 -10
14 -2 48 -6 75 -9 28 -3 77 -8 110 -11 128 -13 209 -48 231 -100 8 -19 14 -36
14 -39 0 -6 -40 1 -115 21 -64 16 -122 19 -170 9 -16 -4 -50 -9 -75 -12 -25
-3 -62 -10 -83 -14 -55 -12 -191 -5 -270 14 -131 31 -278 111 -375 206 -70 70
-143 203 -154 283 -2 12 -6 27 -9 32 -10 16 -8 245 2 245 5 0 9 -7 9 -15z
m1259 -942 c-17 -32 -37 -66 -43 -76 -10 -16 -30 -17 -231 -15 l-219 3 -38 73
-38 72 301 0 301 0 -33 -57z m-84 -320 c-3 -65 -8 -136 -10 -158 -2 -22 -6
-94 -10 -160 -4 -75 -12 -125 -20 -133 -10 -11 -14 -4 -19 39 -9 63 -46 137
-82 163 l-27 19 -40 -44 c-128 -142 -137 -150 -138 -132 0 10 -2 34 -4 53 -3
34 -11 137 -20 275 -3 39 -7 98 -10 133 l-6 62 196 0 197 0 -7 -117z m-159
-451 c-2 -33 -12 -74 -23 -97 -20 -39 -173 -244 -220 -295 -13 -13 -21 -31
-19 -40 3 -8 8 -55 11 -105 3 -49 8 -106 10 -125 2 -19 6 -71 10 -115 3 -44 8
-100 10 -125 2 -25 7 -80 10 -122 l7 -78 -147 0 c-81 0 -145 3 -143 8 2 4 26
54 55 112 l51 105 0 273 1 273 128 137 c222 238 246 261 254 256 4 -2 7 -30 5
-62z m261 -107 c-6 -13 -37 -50 -67 -82 -30 -33 -91 -98 -135 -146 -79 -87
-115 -107 -129 -71 -11 30 -6 45 32 86 20 22 42 46 47 52 110 124 193 210 209
216 32 13 60 -24 43 -55z m29 -220 c8 -21 -2 -34 -124 -159 -109 -113 -143
-134 -156 -100 -14 37 -13 39 170 231 56 59 64 64 83 53 12 -6 25 -17 27 -25z
m-388 -229 c-1 -49 23 -99 57 -122 19 -12 22 -20 16 -37 -15 -42 10 -126 44
-145 14 -7 14 -12 -1 -47 -20 -49 -13 -109 15 -139 12 -12 21 -25 21 -29 0
-10 -148 -9 -153 1 -3 4 -8 51 -11 105 -3 54 -8 123 -11 155 -3 31 -7 84 -9
117 -3 33 -8 98 -12 145 l-6 85 25 -24 c21 -19 26 -33 25 -65z m412 5 c5 -11
10 -24 10 -29 0 -17 -204 -213 -218 -210 -8 2 -21 13 -29 25 -14 21 -11 27 88
128 57 58 111 105 121 105 9 0 22 -9 28 -19z m-8 -273 c15 -24 8 -36 -57 -99
-74 -72 -106 -89 -129 -69 -29 23 -18 44 61 116 77 71 105 83 125 52z"/>
</g>
</svg>
